<?xml version="1.0" standalone="no"?>
<!DOCTYPE svg PUBLIC "-//W3C//DTD SVG 20010904//EN"
 "http://www.w3.org/TR/2001/REC-SVG-20010904/DTD/svg10.dtd">
<svg version="1.0" xmlns="http://www.w3.org/2000/svg"
 width="700.000000pt" height="700.000000pt" viewBox="0 0 700.000000 700.000000"
 preserveAspectRatio="xMidYMid meet">
<metadata>
Created by potrace 1.11, written by Peter Selinger 2001-2013
</metadata>
<g transform="translate(0.000000,700.000000) scale(0.100000,-0.100000)"
fill="#000000" stroke="none">
<path d="M848 6995 c-2 -2 -28 -6 -58 -9 -319 -38 -608 -275 -728 -599 -44
-117 -57 -195 -56 -347 1 -114 5 -163 22 -227 29 -114 74 -216 132 -304 58
-89 50 -80 360 -399 136 -140 280 -289 319 -330 139 -144 567 -584 681 -700
117 -119 146 -138 223 -144 69 -6 117 22 222 129 102 103 570 585 666 685 29
30 166 172 305 315 389 401 388 400 465 554 62 123 90 243 94 401 4 155 -13
257 -65 387 -30 75 -90 184 -117 211 -7 7 -13 17 -13 21 0 18 -155 163 -219
206 -249 165 -558 195 -846 82 -139 -55 -245 -129 -382 -268 l-102 -104 -108
107 c-60 59 -128 122 -153 141 -110 83 -269 151 -410 176 -57 11 -225 22 -232
16z"/>
<path d="M6429 6980 c-58 -10 -130 -21 -160 -25 -30 -3 -61 -8 -69 -10 -14 -4
-28 -7 -127 -20 -21 -3 -63 -9 -93 -15 -59 -10 -96 -15 -205 -31 -38 -5 -77
-11 -85 -14 -8 -2 -40 -7 -70 -10 -30 -4 -57 -8 -60 -10 -3 -1 -30 -6 -61 -9
-31 -4 -67 -9 -80 -11 -13 -3 -40 -7 -59 -10 -63 -8 -125 -17 -145 -21 -11 -3
-36 -7 -55 -10 -19 -3 -78 -12 -130 -20 -52 -8 -108 -17 -125 -19 -16 -2 -43
-7 -60 -9 -16 -3 -102 -17 -190 -30 -88 -14 -173 -28 -188 -31 -86 -17 -191
-98 -244 -187 -68 -113 -68 -108 -68 -946 l1 -753 -26 5 c-68 14 -93 16 -190
17 -93 0 -130 -3 -205 -16 -155 -27 -292 -84 -410 -172 -118 -87 -186 -174
-230 -294 -23 -61 -28 -91 -28 -169 -1 -97 7 -134 50 -227 24 -54 97 -151 143
-189 14 -12 38 -33 54 -47 66 -57 280 -153 386 -172 149 -27 335 -27 464 0
313 65 552 252 626 490 21 69 21 77 22 848 0 585 3 777 11 777 7 0 68 9 137
20 69 11 199 31 290 45 91 14 179 28 195 31 33 5 73 11 125 19 19 2 46 7 59 9
12 3 42 7 65 10 22 3 100 14 171 26 72 11 141 23 155 25 14 2 48 7 75 11 28 3
59 8 70 10 49 9 113 17 144 18 l35 1 0 -308 c1 -170 -2 -313 -5 -319 -4 -7
-22 -7 -55 0 -69 15 -269 12 -361 -5 -503 -92 -793 -489 -622 -853 83 -178
273 -328 499 -393 114 -33 136 -37 269 -44 171 -8 360 22 471 76 24 11 47 21
52 21 4 0 41 21 83 46 137 83 248 212 301 349 18 48 19 93 22 1103 2 699 -1
1073 -8 1110 -25 138 -116 258 -238 315 -79 37 -174 42 -323 17z"/>
<path d="M1410 3058 c-66 -11 -145 -54 -198 -107 -35 -35 -64 -83 -112 -184
-65 -137 -65 -137 -100 -137 -19 -1 -186 -2 -370 -3 -321 -3 -337 -4 -392 -26
-81 -31 -159 -106 -200 -189 l-33 -67 0 -1030 0 -1030 31 -65 c39 -82 101
-144 184 -184 l65 -31 1685 0 1685 0 67 33 c82 40 157 119 189 200 l23 57 2
1000 c1 820 -1 1010 -13 1054 -28 111 -127 218 -237 257 -45 16 -92 18 -376
20 -179 2 -343 3 -365 3 l-41 1 -69 140 c-56 114 -79 150 -122 191 -52 49
-109 81 -168 94 -42 10 -1081 12 -1135 3z m715 -1053 c39 -8 111 -35 160 -59
438 -216 527 -801 175 -1144 -81 -79 -221 -158 -313 -178 -86 -18 -120 -22
-201 -19 -182 6 -345 75 -471 200 -104 103 -163 208 -202 356 -14 53 -12 245
3 309 50 212 197 395 389 484 149 69 292 85 460 51z"/>
<path d="M5030 3044 c-68 -30 -92 -67 -104 -160 -3 -22 -14 -94 -25 -160 -11
-65 -23 -139 -26 -164 -3 -25 -7 -52 -10 -60 -2 -8 -6 -35 -9 -60 -3 -25 -8
-54 -10 -65 -6 -32 -16 -97 -21 -135 -3 -19 -6 -44 -9 -55 -2 -11 -6 -38 -10
-60 -3 -22 -15 -96 -25 -165 -11 -69 -22 -141 -25 -160 -3 -19 -12 -80 -21
-135 -34 -209 -35 -227 -17 -265 17 -35 73 -77 112 -84 14 -2 221 -5 461 -5
l436 -1 -49 -167 c-27 -93 -69 -238 -94 -323 -25 -85 -61 -209 -81 -275 -126
-430 -123 -417 -91 -465 33 -48 81 -73 148 -76 92 -4 120 19 236 193 54 82
344 518 646 970 301 453 551 835 554 849 17 68 -38 142 -121 162 -24 6 -207 9
-448 8 -225 0 -412 1 -417 4 -4 3 62 160 146 350 84 190 153 358 153 373 1 43
-25 89 -66 117 l-37 25 -570 2 c-494 2 -576 0 -606 -13z"/>
</g>
</svg>
